<svg width="477" height="435" viewBox="0 0 477 435" fill="none" xmlns="http://www.w3.org/2000/svg">
<path d="M149 -148C153.8 -60.4 227.167 28.1667 247.5 66L348.5 158.5L621.5 286.5" stroke="#7C7979"/>
<path d="M119 -118C123.8 -30.4 197.167 58.1667 217.5 96L318.5 188.5L591.5 316.5" stroke="#7C7979"/>
<path d="M90 -89C94.8 -1.4 168.167 87.1667 188.5 125L289.5 217.5L562.5 345.5" stroke="#7C7979"/>
<path d="M60 -59C64.8 28.6 138.167 117.167 158.5 155L259.5 247.5L532.5 375.5" stroke="#7C7979"/>
<path d="M31 -30C35.8 57.6 109.167 146.167 129.5 184L230.5 276.5L503.5 404.5" stroke="#7C7979"/>
<path d="M1 0C5.8 87.6 79.1667 176.167 99.5 214L200.5 306.5L473.5 434.5" stroke="#7C7979"/>
</svg>
